<svg width="480" height="480" viewBox="0 0 480 480" fill="none" xmlns="http://www.w3.org/2000/svg">
<path d="M356.301 187.602C355.576 162.757 394.925 185.992 409.677 210.028C431.183 245.071 396.411 280.408 384.091 230.677C374.829 193.289 356.811 205.093 356.301 187.602Z" fill="#FFDDBF"/>
<path d="M115.487 116.54C113.045 118.623 112.887 121.885 114.484 123.754C116.082 125.623 119.887 126.496 122.281 126.116C126.4 125.461 128.605 121.015 126.592 116.689C124.272 111.702 117.929 114.458 115.487 116.54Z" fill="#FFDDBF"/>
<path d="M215.019 64.7598C210.245 78.4942 232.022 70.1283 245.554 74.8199C259.086 79.5115 267.865 94.6914 275.171 86.6765C283.843 77.1624 268.982 57.4864 255.45 52.7948C241.918 48.1032 219.793 51.0254 215.019 64.7598Z" fill="#FFDDBF"/>
<path d="M236.847 401.043C274.071 416.772 294.9 390.553 310.421 353.913C325.942 317.273 312.111 301.991 274.887 286.262C237.663 270.534 206.609 279.511 191.087 316.151C170.712 364.248 199.623 385.314 236.847 401.043Z" fill="#B7EB6E"/>
<path fill-rule="evenodd" clip-rule="evenodd" d="M321.771 406.395C310.865 420.55 285.83 436.606 269.661 445.772C259.808 451.358 264.59 464.958 276.141 459.493C295.324 450.417 322.442 432.292 334.188 414.673C339.187 407.174 327.746 398.64 321.771 406.395Z" fill="#B7EB6E"/>
<path fill-rule="evenodd" clip-rule="evenodd" d="M125.161 50.9855C113.101 53.361 92.8726 50.3122 80.3534 47.721C72.7246 46.1421 69.0305 55.3443 77.4826 57.7558C91.5202 61.7608 113.764 64.6834 127.829 60.8972C133.815 59.2858 131.767 49.6841 125.161 50.9855Z" fill="#B7EB6E"/>
<path d="M401.475 121.119C397.374 119.716 393.55 120.79 392.113 124.981C390.676 129.173 394.01 132.751 398.111 134.154C402.212 135.556 405.494 134.283 406.931 130.091C408.817 124.589 405.576 122.521 401.475 121.119Z" fill="#B7EB6E"/>
<path d="M382.472 29.4284C382.07 23.6331 370.861 22.853 362.774 23.8494C355.753 24.7146 347.269 25.9512 347.671 31.7465C347.951 35.7882 345.704 39.6435 363.894 39.7672C376.6 39.8444 382.817 35.2391 382.472 29.4284Z" fill="#7BB5FB"/>
<path d="M58.6376 112.719C59.4114 124.202 35.305 124.274 27.1355 123.624L26.5024 103.058C29.6262 102.34 33.3052 101.956 37.5379 101.982C61.1957 102.148 58.273 107.309 58.6376 112.719Z" fill="#7BB5FB"/>
<path d="M226.748 266.333C230.545 265.336 240.58 264.659 238.054 258.776C237.705 257.954 237.076 257.438 236.1 257.438C225.394 257.926 214.438 260.123 203.37 261.614C209.288 258.924 212.457 257.328 217.104 256.032C220.65 255.048 234.714 252.818 235.221 246.634M226.748 266.333C206.205 271.029 189.057 284.552 179.597 302.671M226.748 266.333C237.849 263.795 249.555 263.939 260.589 266.755M179.597 302.671C174.57 312.299 171.714 323.225 171.672 334.815C171.528 373.407 204.103 405.599 242.547 405.599C280.984 405.599 313.779 374.098 313.923 335.317C313.944 328.983 313.04 322.908 311.736 316.748M179.597 302.671C166.603 327.844 152.049 369.355 123.798 381.558C104.032 390.097 84.0139 375.534 78.4729 356.796C72.613 336.978 85.2459 319.597 98.887 306.643M198.973 105.134C207.696 105.581 217.969 99.9766 223.593 93.7038C228.339 88.4069 231.768 81.352 230.838 72.083M198.973 105.134C188.622 96.9756 174.632 106.849 177.145 118.154C178.482 124.149 184.019 129.045 190.237 129.299M198.973 105.134C197.404 79.6846 206.422 57.0007 236.794 54.8261M273.463 106.207C278.331 90.8758 274.006 69.9234 259.77 60.3331C252.988 55.7598 244.767 54.2553 236.794 54.8261M273.463 106.207C283.556 96.9188 298.586 107.142 295.962 118.573C294.714 124.005 290.017 128.493 284.518 129.446M273.463 106.207C275.449 94.8768 264.714 90.4937 255.779 88.3224C246.26 86.0085 232.169 85.3515 230.838 72.083M236.794 54.8261C232.23 59.2728 230.251 66.2423 230.838 72.083M190.237 129.299C191.671 129.358 193.446 129.144 195.187 128.629M190.237 129.299C190.218 134.316 188.722 138.661 186.22 142.451M98.887 306.643C55.582 290.11 52.483 225.845 84.3439 197.441C111.573 173.137 166.245 172.713 186.22 142.451M98.887 306.643C125.863 281.025 150.893 251.254 175.271 223.075M434.114 326.548V331.776M434.114 338.048V343.276M442.488 334.912H437.254M430.973 334.912H425.739M404.795 106.207V113.176M404.795 121.54V128.51M415.96 117.358H408.982M400.607 117.358H393.629M284.518 129.446C282.405 129.812 280.073 129.577 277.918 128.828M284.518 129.446C284.5 134.248 285.84 138.453 288.125 142.156M384.59 301.932C417.472 278.182 419.69 225.454 389.922 198.529C362.995 174.172 307.155 173.001 288.125 142.156M384.59 301.932C362.703 269.721 327.965 245.064 299.049 219.773M384.59 301.932C390.416 310.506 394.47 320.224 396.567 330.376M295.34 300.007C289.204 300.26 283.06 300.652 276.936 301.121M271.702 293.723C269.229 294.003 265.931 294.108 265.276 291.021C264.829 288.972 266.391 288.104 267.69 287.578C270.5 286.442 273.752 286.261 276.745 285.929C281.339 285.42 285.982 284.947 290.664 284.749C292.425 284.674 293.462 283.842 292.66 282.672C292.06 281.797 288.082 280.664 287.077 280.288C279.241 277.353 271.63 274.285 264.145 270.6C262.667 269.872 260.913 268.402 260.589 266.755M271.702 293.723C269.452 293.978 266.122 295.741 266.756 298.738C267.273 301.122 269.548 301.596 271.488 301.484C273.305 301.39 275.122 301.26 276.936 301.121M271.702 293.723C279.079 292.888 286.602 292.242 294.167 291.746M276.936 301.121C274.215 301.324 269.181 301.634 269.791 305.416C270.116 307.387 271.477 308.007 273.024 308.202M213.319 113.915C217.795 109.656 225.886 109.723 230.347 113.971M228.02 112.288L230.112 109.635M224.957 111.125L226.539 107.697M221.568 110.754L221.71 107.252M215.237 112.47L213.181 109.79M218.264 111.208L216.754 107.88M243.776 114.027C248.251 109.767 256.342 109.834 260.804 114.082M258.504 112.414L260.567 109.746M255.442 111.243L257.007 107.808M252.014 110.866L252.178 107.363M245.691 112.583L243.651 109.901M248.731 111.317L247.224 107.991M311.736 316.748C317.286 322.541 320.927 330.442 323.518 337.704C328.761 352.389 343.921 372.248 360.538 377.071M311.736 316.748C303.7 308.359 293.123 307.582 282.053 308.085M195.187 128.629C196.067 129.884 196.865 131.675 197.019 133.333C197.554 139.075 191.839 144.339 186.22 142.451M195.187 128.629C198.16 127.75 201.033 125.992 201.932 123.214C224.291 156.569 201.203 193.102 175.271 223.075M190.138 125.374C184.974 124.733 180.145 129.305 180.312 134.407C180.423 138.039 182.913 141.339 186.22 142.451M277.918 128.828C274.936 127.791 272.292 125.769 271.033 122.99C267.656 134.337 258.709 143.732 258.249 155.943C257.211 183.582 280.012 203.121 299.049 219.773M277.918 128.828C276.706 130.557 275.848 132.646 275.942 134.784C276.199 140.659 282.686 145.201 288.125 142.156M282.912 125.681C288.076 125.082 292.863 129.682 292.668 134.784C292.548 137.874 290.711 140.709 288.125 142.156M175.271 223.075C183.674 230.811 194.221 236.986 204.898 241.057M204.898 241.057C210.747 236.692 216.623 232.362 222.268 227.733C223.175 226.98 224.459 225.14 225.953 226.046C228.805 227.81 227.557 232.344 226.19 234.633C223.679 238.888 219.014 241.417 215.168 244.34M204.898 241.057C198.837 245.58 192.213 249.421 186.901 254.873C170.361 271.823 156.921 291.38 140.702 308.581C128.128 321.913 116.96 329.505 113.421 344.686C110.279 358.164 114.282 371.509 123.781 381.565C157.441 417.197 195.397 450.613 239.938 472C285.084 450.32 329.704 416.875 360.538 377.071M235.221 246.634C257.022 245.909 281.519 235.845 299.049 219.773M235.221 246.634C235.346 245.117 234.52 243.458 232.792 243.458C229.462 244.274 226.192 245.081 222.965 245.935M222.965 245.935C220.407 245.547 217.823 245.019 215.168 244.34M222.965 245.935C215.55 247.899 208.365 250.115 201.207 253.272C206.007 250.617 210.795 247.663 215.168 244.34M254.927 96.4218C242.203 95.318 236.138 103.977 237.095 115.22C237.555 120.625 239.002 123.381 237.62 125.513C236.796 126.768 234.801 126.977 233.461 126.615M217.9 128.678C226.707 140.624 247.224 137.829 253.965 128.037M396.567 330.376C456.397 241.299 455.152 137.532 452.604 33.7777C397.641 63.453 277.061 70.0566 239.938 7.99994C202.761 70.1458 75.4977 63.7197 27.276 33.7777M396.567 330.376C400.982 351.753 386.499 384.606 360.538 377.071M27.2732 33.7778C26.8063 52.7752 26.4335 71.7996 26.5024 90.7525M59.0934 284.585C35.5407 230.713 28.3338 172.736 26.8248 113.671M26.5024 90.7525C28.2842 90.892 30.0657 91.5665 31.0239 92.599C36.7652 98.7694 40.5927 87.2798 48.0351 92.599C49.4759 93.6171 51.0402 95.607 52.288 96.8544C55.6902 100.046 67.3854 92.5988 73.552 105.365C75.0887 108.546 73.552 113.876 65.0464 113.876C49.0534 114.054 40.4529 113.489 26.8248 113.671M26.5024 90.7525C26.5302 98.4059 26.63 106.048 26.8248 113.671M282.053 308.085V308.085C285.011 311.043 285.016 315.837 282.065 318.802L243.812 357.226C239.901 361.155 233.54 361.153 229.632 357.221L213.116 340.603C210.432 337.902 210.438 333.539 213.131 330.847V330.847C215.82 328.157 220.178 328.147 222.88 330.824L236.868 344.686L273.024 308.202M282.053 308.085C279.092 308.219 275.983 308.575 273.024 308.202M260.589 266.755C260.098 264.257 262.619 263.024 264.718 263.226C266.253 263.393 267.732 263.909 269.184 264.495C274.731 266.754 280.341 268.825 285.96 270.893C290.664 272.624 296.005 273.625 300.713 275.869C314.74 282.476 322.961 296.277 332.27 307.888C341.021 318.803 351.322 328.393 360.143 339.252C370.241 351.686 369.594 365.382 360.538 377.071M119.518 118.067C119.518 120.377 117.643 122.249 115.331 122.249C113.018 122.249 111.143 120.377 111.143 118.067C111.143 115.758 113.018 113.886 115.331 113.886C117.643 113.886 119.518 115.758 119.518 118.067ZM385.182 32.4764C391.536 32.4764 392.684 28.4952 391.536 26.1188C386.929 16.5823 378.193 22.1454 375.651 19.7612C374.719 18.8294 373.551 17.3429 372.474 16.5824C366.915 12.6089 364.056 21.1917 359.767 16.5824C357.702 14.3572 351.507 14.3577 350.236 19.7617C349.116 24.5651 343.118 23.3076 339.858 26.1188C338.374 27.3984 337.437 29.1012 339.118 30.8873C341.182 33.1125 346.424 32.6357 350.237 32.4768C364.691 31.9999 370.886 32.6353 385.182 32.4764Z" stroke="#071D2B" stroke-width="1.5" stroke-miterlimit="10" stroke-linecap="round" stroke-linejoin="round"/>
</svg>
